HIERARCHY
ROOT Hips
{
	OFFSET 0.000000 0.000000 0.000000
	CHANNELS 6 Xposition Yposition Zposition Zrotation Yrotation Xrotation 
	JOINT LHipJoint
	{
		OFFSET 0.000000 0.000000 0.000000
		CHANNELS 3 Zrotation Yrotation Xrotation
		JOINT LeftUpLeg
		{
			OFFSET 1.363060 -1.794630 0.839290
			CHANNELS 3 Zrotation Yrotation Xrotation
			JOINT LeftLeg
			{
				OFFSET 2.448110 -6.726130 0.000000
				CHANNELS 3 Zrotation Yrotation Xrotation
				JOINT LeftFoot
				{
					OFFSET 2.562200 -7.039590 0.000000
					CHANNELS 3 Zrotation Yrotation Xrotation
					JOINT LeftToeBase
					{
						OFFSET 0.157640 -0.433110 2.322550
						CHANNELS 3 Zrotation Yrotation Xrotation
						End Site
						{
							OFFSET 0.000000 0.000000 0.000000
						}
					}
				}
			}
		}
	}
	JOINT RHipJoint
	{
		OFFSET 0.000000 0.000000 0.000000
		CHANNELS 3 Zrotation Yrotation Xrotation
		JOINT RightUpLeg
		{
			OFFSET -1.305520 -1.794630 0.839290
			CHANNELS 3 Zrotation Yrotation Xrotation
			JOINT RightLeg
			{
				OFFSET -2.542530 -6.985550 0.000000
				CHANNELS 3 Zrotation Yrotation Xrotation
				JOINT RightFoot
				{
					OFFSET -2.568260 -7.056230 0.000000
					CHANNELS 3 Zrotation Yrotation Xrotation
					JOINT RightToeBase
					{
						OFFSET -0.164730 -0.452590 2.363150
						CHANNELS 3 Zrotation Yrotation Xrotation
						End Site
						{
							OFFSET 0.000000 0.000000 0.000000
						}
					}
				}
			}
		}
	}
}
MOTION
Frames: 19
Frame Time: 0.008333
24.930853 15.384749 4.293676 54.985386 -89.191789 -27.766492 -12.763556 3.372346 -1.257895 -0.238645 10.105730 5.380799 -1.064303 -0.188237 9.314212 0.926454 7.843872 1.616356 1.146400 0.000000 -83.817800 7.516349 0.398270 4.262797 2.684864 6.570935 -74.454067 0.584090 -4.392099 50.825042 -0.967742 -2.359598 -4.769346 -0.585100 -0.000001 -45.520500
24.678229 15.402509 4.259218 70.770621 -88.647540 -43.424136 -13.531945 3.408161 -1.125419 0.045680 9.985001 4.588052 -0.784913 0.001544 11.200587 0.987485 8.472774 4.296095 1.596999 -0.000000 -85.072600 6.945177 0.108933 4.149593 2.940303 6.637750 -74.066717 0.493047 -4.357276 51.956251 -1.093651 -2.810792 -5.646398 -0.572000 -0.000000 -45.001800
24.426325 15.427505 4.222431 81.693687 -88.449177 -54.201689 -14.087349 3.504107 -1.008729 0.306685 9.890629 3.609933 -0.532306 0.217952 13.323831 1.096594 9.146629 6.979857 2.080300 -0.000000 -85.181300 6.571480 0.018646 4.012564 3.319762 6.788767 -73.484271 0.440547 -4.296280 52.828195 -1.209337 -3.183100 -6.661959 -0.523200 -0.000000 -44.587600
24.175837 15.459529 4.183083 89.004004 -88.384094 -61.372997 -14.464981 3.572184 -0.906628 0.521230 9.770148 2.467760 -0.294139 0.420107 15.707215 1.239766 9.826564 9.559276 2.579400 -0.000000 -83.985400 6.340622 -0.018805 3.876942 3.756631 6.910158 -72.745571 0.428789 -4.237309 53.458416 -1.313764 -3.462552 -7.788710 -0.440600 0.000001 -44.254100
23.927731 15.498235 4.140681 93.751787 -88.351306 -65.995171 -14.711194 3.588283 -0.816532 0.634048 9.602355 1.174091 -0.075838 0.592799 18.346495 1.405334 10.505580 11.902922 3.076801 -0.000000 -81.404799 6.208500 -0.049821 3.747971 4.186241 6.957513 -71.878065 0.450694 -4.183717 53.874228 -1.402266 -3.633252 -8.982799 -0.330700 -0.000001 -43.986200
23.682381 15.543505 4.096006 97.009969 -88.320502 -69.139037 -14.873470 3.551172 -0.738536 0.641392 9.410110 -0.283859 0.112240 0.736026 21.230808 1.580117 11.165139 13.886995 3.547000 -0.000000 -77.632400 6.136097 -0.087965 3.628349 4.592557 6.944251 -70.897146 0.499920 -4.128483 54.081696 -1.474191 -3.704988 -10.186916 -0.205600 0.000001 -43.782300
23.440517 15.594998 4.049049 98.996691 -88.272000 -71.021922 -14.959985 3.465279 -0.677710 0.524142 9.201928 -1.898899 0.263042 0.855357 24.328998 1.751986 11.811132 15.417510 3.974700 0.000000 -72.959801 6.116006 -0.135367 3.521704 4.944533 6.873007 -69.822910 0.569332 -4.071148 54.095725 -1.529013 -3.688117 -11.351867 -0.076800 -0.000000 -43.647900
23.202277 15.652444 4.000629 99.902361 -88.211607 -71.831457 -14.985154 3.336647 -0.638225 0.298028 9.001432 -3.671175 0.377064 0.960218 27.601386 1.911458 12.445307 16.448058 4.346700 0.000000 -67.850000 6.136087 -0.197295 3.433559 5.241383 6.766399 -68.668635 0.654012 -4.009487 53.917702 -1.569746 -3.609748 -12.432026 0.045100 0.000000 -43.591099
22.967856 15.715632 3.951393 99.605981 -88.149416 -71.443938 -14.952716 3.169346 -0.623638 -0.024662 8.816358 -5.589055 0.462897 1.058091 30.990343 2.054739 13.086616 16.988334 4.663901 -0.000000 -62.806901 6.192416 -0.278696 3.368479 5.481377 6.641311 -67.446928 0.750255 -3.944123 53.547012 -1.600284 -3.499235 -13.394394 0.152800 0.000001 -43.614900
22.737025 15.784304 3.902016 97.773243 -88.105316 -69.523071 -14.860045 2.964690 -0.636170 -0.423380 8.650754 -7.635442 0.533218 1.152315 34.435516 2.181911 13.750624 17.078365 4.929800 0.000000 -58.204700 6.286281 -0.385323 3.330916 5.672451 6.514781 -66.164812 0.856313 -3.877274 52.978985 -1.625278 -3.386832 -14.219693 0.243100 -0.000000 -43.709600
22.509940 15.858256 3.853107 93.821994 -88.110104 -65.486645 -14.692058 2.723282 -0.676942 -0.872629 8.502107 -9.785899 0.600882 1.241470 37.870568 2.296608 14.452789 16.784799 5.151800 -0.000000 -54.345900 6.429433 -0.518582 3.324284 5.830513 6.402882 -64.822840 0.972523 -3.812460 52.204230 -1.649425 -3.300486 -14.901840 0.316100 -0.000000 -43.853000
22.286139 15.937219 3.805201 87.018172 -88.212218 -58.598961 -14.415501 2.454922 -0.748634 -1.339018 8.374857 -12.018352 0.670568 1.325241 41.236286 2.402149 15.189814 16.156537 5.325600 -0.000000 -51.182800 6.650665 -0.663007 3.349597 5.982581 6.328666 -63.413612 1.100115 -3.751225 51.211479 -1.676690 -3.263091 -15.445474 0.373900 0.000001 -44.008500
22.065258 16.020812 3.758679 76.876361 -88.484715 -48.368781 -13.987319 2.198205 -0.855003 -1.790564 8.288696 -14.315601 0.730397 1.416681 44.468314 2.502275 15.950124 15.236171 5.441700 -0.000000 -48.511700 6.991655 -0.765012 3.399389 6.165470 6.336473 -61.917820 1.237301 -3.683034 49.991081 -1.708825 -3.287017 -15.859846 0.419900 0.000000 -44.130800
21.846459 16.108689 3.713700 64.141487 -89.007730 -35.527801 -13.417379 2.029753 -0.990012 -2.228827 8.274936 -16.668615 0.750628 1.552348 47.472897 2.605599 16.747038 14.134516 5.515700 0.000000 -46.728799 7.455825 -0.733894 3.450248 6.400387 6.490107 -60.308614 1.371571 -3.570741 48.548496 -1.743904 -3.365287 -16.150548 0.457100 -0.000000 -44.174800
21.629414 16.200282 3.670318 51.074998 -89.798165 -22.332063 -12.842922 2.002744 -1.138549 -2.708450 8.369468 -19.068406 0.707234 1.771791 50.175884 2.712127 17.552580 12.879778 5.531100 -0.000000 -45.435500 7.934461 -0.531982 3.470589 6.653535 6.812209 -58.566599 1.483166 -3.367580 46.912707 -1.778085 -3.471130 -16.326756 0.487900 0.000000 -44.097400
21.413192 16.294939 3.628384 -140.055041 -89.278934 168.935966 -12.434997 2.059982 -1.276085 -3.289403 8.531550 -21.477571 0.624725 2.054641 52.526717 2.819625 18.342139 11.524713 5.484700 0.000000 -44.511100 8.271658 -0.260646 3.455333 6.852739 7.223070 -56.702320 1.567688 -3.071836 45.104160 -1.810779 -3.583032 -16.410372 0.513800 -0.000000 -43.870300
21.197308 16.391744 3.587660 -148.620122 -88.398051 177.626090 -12.218582 2.102555 -1.391857 -3.966839 8.680917 -23.848611 0.544617 2.341815 54.516000 2.924044 19.083028 10.110442 5.374599 -0.000000 -43.815300 8.428029 -0.043581 3.423468 6.967989 7.619665 -54.737095 1.640503 -2.725632 43.114599 -1.843566 -3.697235 -16.428376 0.535000 0.000000 -43.478500
20.980807 16.489748 3.547760 -155.127241 -87.638726 -175.764143 -12.119699 2.088309 -1.483457 -4.702687 8.762487 -26.154036 0.482979 2.595622 56.146065 3.022807 19.746808 8.675943 5.204000 0.000000 -43.236400 8.458381 0.080645 3.390566 7.013646 7.953358 -52.680938 1.715641 -2.362309 40.929143 -1.875582 -3.812391 -16.392502 0.550600 -0.000000 -42.936100
20.763513 16.587833 3.508285 -160.387899 -86.996040 -170.420547 -12.072820 2.023761 -1.549591 -5.471209 8.752763 -28.384512 0.434637 2.808273 57.421073 3.114258 20.311922 7.256156 4.980500 0.000000 -42.679300 8.419967 0.130788 3.358554 7.006958 8.212110 -50.538811 1.797390 -1.992954 38.550100 -1.902561 -3.918020 -16.300136 0.558600 -0.000000 -42.280300
